<svg height="512" viewBox="0 0 512 512" width="512" xmlns="http://www.w3.org/2000/svg" xmlns:xlink="http://www.w3.org/1999/xlink"><linearGradient id="New_Gradient_Swatch_23" gradientTransform="matrix(.682 -.732 .732 .682 13.073 164.461)" gradientUnits="userSpaceOnUse" x1="168.026" x2="206.909" y1="104.644" y2="65.76"><stop offset="0" stop-color="#f0a4a4"/><stop offset="1" stop-color="#f5c2c2"/></linearGradient><linearGradient id="New_Gradient_Swatch_23-2" gradientTransform="matrix(.972 .236 -.236 .972 21.285 -69.614)" x1="279.817" x2="318.701" xlink:href="#New_Gradient_Swatch_23" y1="58.527" y2="19.643"/><linearGradient id="New_Gradient_Swatch_7" gradientUnits="userSpaceOnUse" x1="277.623" x2="394.377" y1="229.623" y2="112.87"><stop offset="0" stop-color="#816767"/><stop offset="1" stop-color="#9d8989"/></linearGradient><linearGradient id="New_Gradient_Swatch_25" gradientUnits="userSpaceOnUse" x1="309.333" x2="362.667" y1="213.333" y2="160"><stop offset="0" stop-color="#d5cccc"/><stop offset="1" stop-color="#f1eeee"/></linearGradient><linearGradient id="New_Gradient_Swatch_17" gradientUnits="userSpaceOnUse" x1="102.343" x2="153.657" y1="214.343" y2="163.029"><stop offset="0" stop-color="#8177b8"/><stop offset="1" stop-color="#aba4d0"/></linearGradient><linearGradient id="New_Gradient_Swatch_6" gradientUnits="userSpaceOnUse" x1="84.686" x2="427.314" y1="523.314" y2="180.686"><stop offset="0" stop-color="#e3dddd"/><stop offset="1" stop-color="#fff"/></linearGradient><linearGradient id="New_Gradient_Swatch_20" gradientUnits="userSpaceOnUse" x1="112" x2="400" y1="496" y2="208"><stop offset="0" stop-color="#83cacf"/><stop offset="1" stop-color="#dcf0f1"/></linearGradient><linearGradient id="New_Gradient_Swatch_12" gradientUnits="userSpaceOnUse" x1="188.118" x2="323.882" y1="419.882" y2="284.118"><stop offset="0" stop-color="#c7bbbb"/><stop offset="1" stop-color="#f1eeee"/></linearGradient><linearGradient id="New_Gradient_Swatch_7-2" x1="222.059" x2="289.941" xlink:href="#New_Gradient_Swatch_7" y1="385.941" y2="318.059"/><g id="_14-photograph" data-name="14-photograph"><g id="filled"><path d="m191.814 74.777c-20.707 4.907-19.089 22.55-7.165 33.662s41.709-1.472 41.709-1.472 10.453-30.6-1.471-41.709-29.638-11.483-33.073 9.519z" fill="url(#New_Gradient_Swatch_23)"/><path d="m306.548 23.84c-14.421-15.649-29.01-5.595-32.856 10.243s21.715 35.642 21.715 35.642 31.8-5.877 35.641-21.715-4.508-31.463-24.5-24.17z" fill="url(#New_Gradient_Swatch_23-2)"/><path d="m256 208 13.911-83.466a15 15 0 0 1 14.796-12.534h102.586a15 15 0 0 1 14.8 12.534l13.907 83.466z" fill="url(#New_Gradient_Swatch_7)"/><path d="m304 208 5.334-48h53.332l5.334 48z" fill="url(#New_Gradient_Swatch_25)"/><path d="m112 160h32a16 16 0 0 1 16 16v32a0 0 0 0 1 0 0h-64a0 0 0 0 1 0 0v-32a16 16 0 0 1 16-16z" fill="url(#New_Gradient_Swatch_17)"/><rect fill="url(#New_Gradient_Swatch_6)" height="288" rx="16" width="416" x="48" y="208"/><path d="m48 272h416v160h-416z" fill="url(#New_Gradient_Swatch_20)"/><circle cx="256" cy="352" fill="url(#New_Gradient_Swatch_12)" r="96"/><circle cx="256" cy="352" fill="url(#New_Gradient_Swatch_7-2)" r="48"/><path d="m176.469 117.218c6.293 5.864 14.68 7.806 23.03 7.806 13.892 0 27.676-5.375 31.529-7a12 12 0 0 0 6.686-7.175c2.165-6.338 12.116-38.746-4.647-54.367-10.121-9.431-23.11-13-33.906-9.31-5.01 1.712-13.2 6.283-17.352 18.284-11.679 4.992-15.662 13.48-17.016 18.6-2.919 11.023 1.555 23.731 11.676 33.162zm11.524-27.025c.374-1.412 2.96-2.88 6.588-3.739a12 12 0 0 0 9.076-9.741c.6-3.679 1.883-6.361 3.265-6.833a3.484 3.484 0 0 1 1.125-.164c2.124 0 5.476 1.355 8.659 4.322 2.658 2.477 2.429 13.339-.167 23.777-10.238 3.328-21.051 4.32-23.709 1.844-3.825-3.559-5.347-7.537-4.837-9.466z"/><path d="m288.058 79.211a12 12 0 0 0 9.53 2.314c6.586-1.217 39.715-8.418 45.121-30.684 3.264-13.443.01-26.516-8.493-34.119-3.946-3.53-11.938-8.43-24.441-6.173-10.075-7.735-19.424-7.049-24.549-5.723-11.043 2.858-19.926 12.983-23.195 26.426-5.406 22.266 20.733 43.857 26.027 47.959zm-2.7-42.3c1.233-5.082 3.952-8.354 5.883-8.854a1.78 1.78 0 0 1 .448-.054c1.464 0 3.759 1.492 6.039 3.965a12 12 0 0 0 12.936 3.141c3.5-1.278 6.47-1.474 7.559-.5 1.487 1.33 2.4 5.485 1.168 10.566-.858 3.531-10.44 8.653-20.812 11.5-7.919-7.29-14.079-16.231-13.225-19.76z"/><path d="m448 196h-21.834l-12.24-73.438a26.916 26.916 0 0 0 -26.633-22.562h-102.586a26.916 26.916 0 0 0 -26.633 22.562l-12.24 73.438h-73.834v-20a28.032 28.032 0 0 0 -28-28h-32a28.032 28.032 0 0 0 -28 28v20h-20a28.032 28.032 0 0 0 -28 28v256a28.032 28.032 0 0 0 28 28h384a28.032 28.032 0 0 0 28-28v-256a28.032 28.032 0 0 0 -28-28zm-166.252-69.494a2.99 2.99 0 0 1 2.959-2.506h102.586a2.99 2.99 0 0 1 2.959 2.507l11.582 69.493h-23.094l-4.147-37.325a12 12 0 0 0 -11.927-10.675h-53.332a12 12 0 0 0 -11.927 10.675l-4.147 37.325h-23.094zm72.845 69.494h-37.186l2.667-24h31.852zm-246.593-20a4 4 0 0 1 4-4h32a4 4 0 0 1 4 4v20h-40zm-44 44h384a4 4 0 0 1 4 4v36h-139.492a107.786 107.786 0 0 0 -113.016 0h-139.492v-36a4 4 0 0 1 4-4zm388 200h-112.162a107.768 107.768 0 0 0 0-136h112.162zm-392-136h112.162a107.768 107.768 0 0 0 0 136h-112.162zm112 68a84 84 0 1 1 84 84 84.1 84.1 0 0 1 -84-84zm276 132h-384a4 4 0 0 1 -4-4v-36h139.492a107.786 107.786 0 0 0 113.016 0h139.492v36a4 4 0 0 1 -4 4z"/><path d="m316 352a60 60 0 1 0 -60 60 60.068 60.068 0 0 0 60-60zm-96 0a36 36 0 1 1 36 36 36.04 36.04 0 0 1 -36-36z"/></g></g></svg>