<svg id="Layer_1" enable-background="new 0 0 512.024 512.024" height="512" viewBox="0 0 512.024 512.024" width="512" xmlns="http://www.w3.org/2000/svg"><g><ellipse id="XMLID_561_" cx="133.183" cy="428.029" fill="#9bc6ff" rx="73.959" ry="73.959" transform="matrix(.939 -.343 .343 .939 -138.663 71.593)"/><path id="XMLID_559_" d="m209.835 443.182 177.385-307.239c17.373-30.092 7.063-68.57-23.028-85.943l-138.952 240.723 7.777 13.47-43.703 75.695z" fill="#79b2ff"/><path d="m10.012 10h492v208h-492z" fill="#8690a6"/><path id="XMLID_522_" d="m10.012 52h492v124h-492z" fill="#f9f9f9"/><g id="XMLID_2400_"><path id="XMLID_518_" d="m315.344 446.786-179.466-310.843c-17.373-30.092-7.063-68.57 23.028-85.943l138.951 240.723-7.777 13.47 43.703 75.695z" fill="#bdd9ff"/></g><g id="XMLID_2365_"><path id="XMLID_467_" d="m463.873 428.029c0-40.846-33.112-73.959-73.959-73.959s-73.959 33.112-73.959 73.959 33.113 73.959 73.959 73.959c40.847 0 73.959-33.113 73.959-73.959zm-73.959 28.757c-15.882 0-28.757-12.875-28.757-28.757s12.875-28.757 28.757-28.758c15.882 0 28.758 12.875 28.757 28.757.001 15.883-12.874 28.758-28.757 28.758z" fill="#9bc6ff"/></g><path id="XMLID_560_" d="m90.887 375.743v-.011c0-5.523-4.478-9.995-10-9.995s-10 4.482-10 10.005 4.478 10 10 10 10-4.476 10-9.999z"/><path id="XMLID_564_" d="m261.552 280.69c-2.641 0-5.21 1.07-7.07 2.93-1.87 1.86-2.93 4.44-2.93 7.07s1.06 5.21 2.93 7.08c1.86 1.86 4.43 2.92 7.07 2.92 2.63 0 5.21-1.06 7.069-2.92 1.86-1.87 2.931-4.44 2.931-7.08 0-2.63-1.07-5.21-2.931-7.07-1.859-1.86-4.439-2.93-7.069-2.93z"/><path id="XMLID_567_" d="m389.914 466.786c21.371 0 38.758-17.386 38.758-38.757s-17.387-38.757-38.758-38.757c-21.37 0-38.757 17.386-38.757 38.757s17.387 38.757 38.757 38.757zm0-57.515c10.343 0 18.758 8.415 18.758 18.757s-8.415 18.757-18.758 18.757-18.757-8.415-18.757-18.757 8.415-18.757 18.757-18.757z"/><path id="XMLID_577_" d="m502.012 0h-492c-5.522 0-10 4.477-10 10v208c0 5.523 4.478 10 10 10h167.469l43.99 76.193-34.375 59.539c-18.519-15.46-43.307-22.653-67.886-18.512-5.445.918-9.116 6.078-8.197 11.523.918 5.445 6.063 9.114 11.523 8.198 26.201-4.419 52.744 8.082 66.038 31.107 17.633 30.542 7.131 69.736-23.411 87.37-14.796 8.542-32.032 10.81-48.533 6.39-16.502-4.422-30.294-15.005-38.836-29.8-7.426-12.862-10.154-27.995-7.682-42.61.922-5.446-2.745-10.607-8.191-11.528-5.45-.923-10.606 2.746-11.528 8.191-3.247 19.194.333 39.063 10.081 55.947 11.213 19.422 29.318 33.314 50.979 39.119 7.233 1.938 14.574 2.897 21.867 2.897 14.548 0 28.906-3.816 41.843-11.285 13.893-8.021 24.62-19.444 31.754-32.613.156-.225 54.633-94.516 54.633-94.516s54.419 94.197 54.542 94.38c14.23 26.184 41.986 43.998 73.824 43.998 46.295 0 83.959-37.664 83.959-83.959s-37.664-83.958-83.959-83.958c-20.509 0-39.315 7.402-53.913 19.662l-34.374-59.539s34.507-59.769 43.99-76.193h156.395c5.522 0 10-4.477 10-10v-208.001c-.002-5.523-4.48-10-10.002-10zm-10 42h-29.2v-22h29.2zm0 124h-127.6v-104h127.6zm-176.8 42v-22h29.2v22zm-187.994-67.057 14.467 25.057h-121.673v-104h111.124c-16.132 22.561-18.665 53.4-3.918 78.943zm-28.806 45.057v22h-29.2v-22zm315.2-144v-22h29.2v22zm-20 0h-29.199v-22h29.199zm-49.2 0h-29.2v-22h29.2zm-49.2 0h-29.2v-22h29.2zm-49.2 0h-29.2v-22h29.2zm-49.2 0h-29.2v-22h29.2zm-49.2 0h-29.199v-22h29.199zm-49.2 0h-29.2v-22h29.2zm246 20v104h-107.001l-60.031-104zm-95.456 124h46.256v22h-33.558zm115.456 0h29.199v22h-29.199zm49.2 0h29.2v22h-29.2zm-364.4-166v22h-29.2v-22zm-29.2 166h29.2v22h-29.2zm98.4 22v-22h34.819l12.702 22zm97.35 204.916c-1.677-9.216-4.923-18.301-9.868-26.867-1.402-2.429-2.928-4.758-4.546-7.004l31.669-54.853 16.984 29.417zm174.152-48.846c35.268 0 63.959 28.692 63.959 63.958 0 35.267-28.691 63.959-63.959 63.959s-63.959-28.692-63.959-63.959c0-35.266 28.692-63.958 63.959-63.958zm-68.147 15.007c-7.129 9.896-12.152 21.396-14.425 33.85l-162.804-281.984c-12.88-22.309-7.617-50.195 11.181-66.461l130.592 226.24-4.891 8.471c-1.786 3.094-1.786 6.906 0 10zm-23.908-108.356-24.66-42.721h49.324zm164.953-62.721v-22h29.2v22z"/><circle cx="133.183" cy="428.029" fill="#fff" r="28.757"/><path id="XMLID_570_" d="m171.941 428.029c0-21.371-17.387-38.757-38.758-38.757-21.37 0-38.757 17.386-38.757 38.757s17.387 38.757 38.757 38.757c21.371 0 38.758-17.386 38.758-38.757zm-57.515 0c0-10.343 8.414-18.757 18.757-18.757s18.758 8.415 18.758 18.757-8.415 18.757-18.758 18.757-18.757-8.414-18.757-18.757z"/></g></svg>