<svg id="Capa_1" enable-background="new 0 0 512 512" height="512" viewBox="0 0 512 512" width="512" xmlns="http://www.w3.org/2000/svg"><g><g><g><g><path d="m429.639 504.5h-347.278c-12.147 0-21.995-9.847-21.995-21.995v-453.01c0-12.147 9.847-21.995 21.995-21.995h347.278c12.147 0 21.995 9.847 21.995 21.995v453.01c0 12.148-9.848 21.995-21.995 21.995z" fill="#f4fbff"/><path d="m429.639 7.5h-63.37c12.147 0 21.995 9.847 21.995 21.995v453.01c0 12.147-9.847 21.995-21.995 21.995h63.37c12.147 0 21.995-9.848 21.995-21.995v-453.01c0-12.147-9.848-21.995-21.995-21.995z" fill="#e4f6ff"/><path d="m97.391 458.158v-404.316c0-5.146 4.171-9.317 9.317-9.317h298.584c5.146 0 9.317 4.171 9.317 9.317v404.316c0 5.146-4.171 9.317-9.317 9.317h-298.584c-5.146 0-9.317-4.171-9.317-9.317z" fill="#e28086"/><path d="m405.292 44.525h-17.028v422.95h17.028c5.146 0 9.317-4.171 9.317-9.317v-404.316c0-5.146-4.171-9.317-9.317-9.317z" fill="#dd636e"/></g></g><g><g><path d="m314.505 115.885c0-12.023-9.747-21.77-21.77-21.77h-75.022c-27.672 0-50.104 22.432-50.104 50.104v55.628h176.752v-54.839c0-12.023-9.747-21.77-21.77-21.77h-.734c-4.06 0-7.352-3.292-7.352-7.353z" fill="#365e7d"/><path d="m322.591 123.238h-.734c-4.061 0-7.353-3.292-7.353-7.353 0-12.023-9.747-21.77-21.77-21.77h-11.909v105.732h63.535v-54.839c.001-12.024-9.745-21.77-21.769-21.77z" fill="#2b4d66"/><path d="m390.494 356.501-64.271-20.349-30.874-18.78-39.335-7.837-39.378 7.837-30.859 18.78-64.271 20.349c-9.632 3.05-17.896 8.708-24.115 16.048v85.609c0 5.146 4.171 9.317 9.317 9.317h298.584c5.146 0 9.317-4.171 9.317-9.317v-85.609c-6.219-7.34-14.483-12.998-24.115-16.048z" fill="#4a80aa"/><g><path d="m390.494 356.501-64.271-20.349-30.874-18.78-39.335-7.837-39.378 7.837-27.939 17.003 4.138-.824 39.335 7.837 30.874 18.78 64.271 20.349c.096.031.193.061.289.092 14.295 4.616 23.826 18.139 23.826 33.162v53.704h53.863c5.146 0 9.317-4.171 9.317-9.317v-85.609c-6.22-7.34-14.484-12.998-24.116-16.048z" fill="#407093"/></g><g><path d="m208.345 363.92c2.345 34.718 17.272 75.054 29.806 103.555h35.683c12.57-28.583 27.546-69.068 29.825-103.852z" fill="#e4f6ff"/></g><path d="m284.556 467.475-17.628-69.351h-21.856l-17.633 69.351z" fill="#cbe2ff"/><g><g><g><g><g><g><g><g><path d="m295.335 332.302v-50.448h-78.698v50.448c0 21.732 39.349 45.47 39.349 45.47s39.349-23.738 39.349-45.47z" fill="#ffddce"/></g></g></g></g></g></g></g><path d="m344.361 192.547h-15.043c-8.366 0-15.148-6.782-15.148-15.148v-8.29c0-10.898-10.662-18.604-21.01-15.184-24.132 7.976-50.19 7.978-74.324.005l-.028-.009c-10.347-3.418-21.008 4.287-21.008 15.184v8.294c0 8.366-6.782 15.148-15.148 15.148h-15.043v24.772c0 6.33 5.131 11.461 11.461 11.461 1.997 0 3.622 1.565 3.748 3.558 2.416 38.317 34.24 68.65 73.167 68.65 38.926 0 70.75-30.334 73.167-68.65.126-1.993 1.751-3.558 3.748-3.558 6.33 0 11.461-5.131 11.461-11.461z" fill="#ffddce"/><path d="m329.318 192.547c-8.366 0-15.148-6.782-15.148-15.148v-8.29c0-10.898-10.662-18.604-21.01-15.184-4.062 1.343-8.181 2.439-12.334 3.33v83.443c-.688 25.098-13.978 47.036-33.766 59.731 2.927.356 5.902.56 8.925.56 38.926 0 70.75-30.334 73.167-68.65.126-1.993 1.751-3.558 3.748-3.558 6.33 0 11.461-5.131 11.461-11.461v-24.772h-15.043z" fill="#ffcbbe"/></g><g fill="#f4fbff"><path d="m216.636 317.373-30.859 24.575 32.362 40.514c3.936 3.833 10.133 4.068 14.35.546l24.337-20.329z"/><path d="m295.349 317.373-38.523 45.305 22.874 19.558c4.191 3.583 10.416 3.403 14.392-.417l32.131-39.872z"/></g></g><path d="m171.341 339.626c-3.448 1.694-4.833 5.889-3.072 9.303l8.874 17.205c2.299 4.458 1.452 9.891-2.099 13.435-1.827 1.824-3.806 3.799-5.521 5.511-3.07 3.064-4.173 7.592-2.821 11.713 6.818 20.784 30.179 48.567 51.296 70.681h20.153c-18.948-43.088-43.376-113.226-21.515-150.102z" fill="#365e7d"/><path d="m336.941 379.57c-3.55-3.544-4.398-8.977-2.099-13.435l8.874-17.205c1.761-3.414.376-7.609-3.072-9.303l-45.295-22.253c21.861 36.876-2.567 107.015-21.515 150.102h20.153c21.117-22.114 44.478-49.897 51.296-70.681 1.352-4.121.249-8.649-2.821-11.713-1.715-1.713-3.694-3.689-5.521-5.512z" fill="#365e7d"/><path d="m256.826 362.678-23.965 20.015 12.211 15.431h21.856l12.21-16.342z" fill="#bed8fb"/></g></g><g><path d="m451.634 402.707c4.142 0 7.5-3.358 7.5-7.5v-365.712c0-16.264-13.231-29.495-29.495-29.495h-347.278c-16.264 0-29.495 13.231-29.495 29.495v453.01c0 16.263 13.231 29.495 29.495 29.495h347.278c16.264 0 29.495-13.231 29.495-29.495v-52.213c0-4.142-3.358-7.5-7.5-7.5s-7.5 3.358-7.5 7.5v52.213c0 7.992-6.502 14.495-14.495 14.495h-347.278c-7.992 0-14.495-6.502-14.495-14.495v-453.01c0-7.993 6.502-14.495 14.495-14.495h347.278c7.993 0 14.495 6.502 14.495 14.495v365.711c0 4.143 3.358 7.501 7.5 7.501z"/><path d="m97.391 109.293c-4.142 0-7.5 3.358-7.5 7.5v341.365c0 9.273 7.544 16.817 16.817 16.817h298.584c9.273 0 16.817-7.544 16.817-16.817v-404.316c0-9.273-7.544-16.817-16.817-16.817h-298.584c-9.273 0-16.817 7.544-16.817 16.817v27.866c0 4.142 3.358 7.5 7.5 7.5s7.5-3.358 7.5-7.5v-27.866c0-1.002.815-1.817 1.817-1.817h298.584c1.002 0 1.817.815 1.817 1.817v302.265c-4.439-2.861-9.256-5.142-14.352-6.755l-45.877-14.526c-.891-.753-1.864-1.408-2.929-1.931l-41.116-20.2v-19.174c18.87-13.46 31.169-34.535 33.542-57.56 8.801-1.637 15.485-9.374 15.485-18.642 0-22.576 0-51.629 0-72.311 0-16.14-13.131-29.27-29.271-29.27h-.586c-.08-16.072-13.179-29.123-29.27-29.123h-75.022c-31.763 0-57.604 25.841-57.604 57.604v73.1c0 9.269 6.685 17.005 15.486 18.642 2.373 23.025 14.672 44.1 33.542 57.56v19.181l-41.102 20.193c-1.07.525-2.045 1.182-2.938 1.938l-45.855 14.518c-5.095 1.613-9.912 3.894-14.351 6.755v-239.313c0-4.142-3.358-7.5-7.5-7.5zm122.83 282.892c3.425 1.065 7.007 1.134 10.623.045l6.045 7.64-6.78 26.666c-3.811-11.101-7.286-22.767-9.888-34.351zm67.614-90.233v12.68l-31.129 36.609-32.569-36.716v-12.574c19.948 8.56 43.025 8.871 63.698.001zm-71.613 66.093c-1.451-14.684-.605-27.07 2.531-36.984l27.335 30.815-18.407 15.376c-1.185.988-2.875.994-4.06.057zm27.055 15.724 13.493-11.271 12.169 10.405-5.769 7.721h-14.468zm50.038-52.427c3.044 9.802 3.874 21.994 2.476 36.416l-7.152 8.875c-1.196.932-2.888.908-4.065-.097l-17.189-14.698zm-11.432 95.172-6.804-26.769 6.173-8.261c3.624 1.135 7.231 1.099 10.655.065-2.615 11.785-6.145 23.667-10.024 34.965zm-42.535 24.561 11.556-45.451h10.192l11.549 45.435c-1.257 3.083-2.505 6.063-3.73 8.916h-25.844c-1.222-2.848-2.468-5.822-3.723-8.9zm167.761-75.632v82.715c0 1.002-.815 1.817-1.817 1.817h-94.128c22.261-24.788 36.119-45.217 41.245-60.843 2.244-6.839.462-14.257-4.648-19.358l-5.522-5.512c-1.244-1.242-1.538-3.126-.732-4.689l8.875-17.206c.103-.2.193-.405.286-.608l37.562 11.893c7.213 2.283 13.684 6.344 18.879 11.791zm-70.357-29.373c-2.837 8.497-19.096 24.846-5.109 38.808l5.521 5.511c1.082 1.079 1.462 2.638.993 4.067-5.057 15.417-21.425 38.036-47.391 65.519h-5.569c.788-1.897 1.581-3.839 2.375-5.819.003-.009.008-.018.011-.028 13.973-34.818 29.901-84.854 21.556-121.624zm-161.643-201.851c0-23.492 19.112-42.604 42.604-42.604h75.022c7.869 0 14.27 6.402 14.27 14.271 0 8.19 6.663 14.853 14.853 14.853h.733c7.869 0 14.271 6.401 14.271 14.27v40.04h-7.543c-4.217 0-7.648-3.431-7.648-7.648v-8.291c0-16.025-15.646-27.335-30.863-22.305-22.446 7.419-47.171 7.42-69.646-.004-15.218-5.027-30.86 6.282-30.86 22.306v8.294c0 4.217-3.431 7.648-7.648 7.648h-7.543v-40.83zm15.194 87.646c-.375-5.935-5.309-10.584-11.233-10.584-2.184 0-3.961-1.777-3.961-3.961v-17.271h7.543c12.488 0 22.648-10.16 22.648-22.648v-8.294c0-5.732 5.589-9.902 11.183-8.053 25.482 8.418 53.549 8.416 79.03-.006 5.5-1.818 11.156 2.269 11.156 8.062v8.291c0 12.488 10.16 22.648 22.648 22.648h7.543v17.271c0 2.185-1.777 3.961-3.961 3.961-5.925 0-10.859 4.65-11.233 10.585-1.316 20.875-12.667 40.072-30.364 51.353-21.482 13.694-49.146 13.699-70.635 0-17.696-11.281-29.047-30.478-30.364-51.354zm34.107 222.281c.002.006.005.012.007.019.794 1.977 1.585 3.917 2.372 5.811h-5.569c-25.966-27.483-42.334-50.102-47.392-65.519-.469-1.43-.088-2.988.993-4.068l5.521-5.511c13.989-13.963-2.278-30.327-5.109-38.808l27.614-13.566c-8.329 36.701 7.521 86.654 21.563 121.642zm-100.641-90.494 37.55-11.889c.093.202.181.405.284.604l8.875 17.205c.806 1.563.512 3.448-.732 4.689l-5.522 5.511c-5.11 5.102-6.892 12.519-4.648 19.359 5.126 15.627 18.985 36.055 41.245 60.843h-94.113c-1.002 0-1.817-.815-1.817-1.817v-82.715c5.195-5.446 11.666-9.507 18.878-11.79z"/></g></g></svg>