<svg height="512" viewBox="0 0 512 512" width="512" xmlns="http://www.w3.org/2000/svg"><g id="_10-birds" data-name="10-birds"><g id="filled"><path d="m508 50.413a12 12 0 0 0 -22.082-6.327c-8.434 13.069-19.6 21.651-33.906 25.984a66.191 66.191 0 0 0 -5.272-23.57c-6.682-15.452-19.77-29.741-38.9-42.471a12 12 0 0 0 -18.441 7.776c-3.028 16.125-8.905 33.363-17.5 51.354-5.1-1.611-9.774-3.2-13.827-4.581a92 92 0 0 0 -74.1 167.636l6.469 47.409c1 9.532 13.688 13.881 20.323 6.914l36.814-36.365a169.3 169.3 0 0 0 19.331 1.148c27.78 0 52.065-7.476 72.594-22.408 69.509-50.559 68.566-167.544 68.497-172.499zm-197.025 196.181-1.421-10.406q4.718 1.4 9.339 2.584zm114.355-43.052c-29.2 21.209-69.179 23.4-118.815 6.5q-3.173-1.079-6.188-2.445c-.049-.024-.1-.043-.15-.067a68 68 0 0 1 50.158-126.23c6.724 2.289 15.091 5.137 24.511 7.806a12 12 0 0 0 13.918-6.009 266.966 266.966 0 0 0 19.765-48.328c7.617 6.88 13.036 14 16.179 21.261 3.31 7.652 4.185 16.716 2.6 26.94-1.366 7.526 5.55 14.777 13.134 13.769 15.843-1.694 29.695-6.556 41.45-14.518-4.292 35.738-17.277 92.79-56.562 121.321z"/><path d="m306.834 159.449a12 12 0 1 0 7.493 15.227 12 12 0 0 0 -7.493-15.227z"/><path d="m273.623 290.44-47.409-6.47a92 92 0 0 0 -167.637 74.1c1.38 4.054 2.971 8.727 4.582 13.826-17.991 8.6-35.229 14.473-51.353 17.5-8.236 1.3-12.594 11.638-7.777 18.442 12.73 19.13 27.02 32.218 42.471 38.9a66.18 66.18 0 0 0 23.57 5.27c-4.334 14.305-12.915 25.473-25.983 33.907a12 12 0 0 0 6.326 22.081c.232 0 .706.009 1.407.009 14.326 0 122.894-2.237 171.092-68.5 18.3-25.157 25.382-55.952 21.252-91.916l36.373-36.822a12 12 0 0 0 -6.914-20.323zm-70.081 134.891c-28.53 39.284-85.583 52.273-121.324 56.562 7.962-11.755 12.823-25.607 14.517-41.45 1.023-7.578-6.271-14.51-13.768-13.134-10.225 1.583-19.288.708-26.94-2.6-7.266-3.143-14.381-8.562-21.261-16.179a267.1 267.1 0 0 0 48.328-19.765 12 12 0 0 0 6.006-13.92c-2.669-9.419-5.517-17.786-7.8-24.511a68 68 0 1 1 128.746-43.819c16.892 49.637 14.705 89.612-6.504 118.816zm35.231-106.44q-1.185-4.622-2.575-9.336l10.4 1.419z"/><path d="m166.943 291.607a12 12 0 1 0 15.226 7.494 12 12 0 0 0 -15.226-7.494z"/><path d="m158.608 94.383a12 12 0 0 0 8.811 4.307c.124 0 .969.031 2.375.031a137.749 137.749 0 0 0 22.579-1.894c19.718-3.422 32.607-11.071 38.31-22.735 7.394-15.123 7.035-31.388-.938-42.446-3.78-5.244-12.219-13.262-28.491-13.323-10.042-12.8-21.554-14.54-28.012-14.3-13.623.5-26.679 10.2-34.073 25.328-5.7 11.663-3.824 26.533 5.585 44.195a135.565 135.565 0 0 0 13.854 20.837zm2.121-54.493c3.34-6.831 8.847-11.719 13.392-11.886h.218c4.656 0 8.556 5.479 10.481 8.781a12 12 0 0 0 11.959 5.847c3.851-.516 10.717-.8 13.5 3.054 2.661 3.689 2.185 11.037-1.155 17.869-3.444 7.045-21.241 10.693-35.429 11.144-8.363-11.485-16.409-27.765-12.966-34.809z"/><path d="m71.9 156a93.638 93.638 0 0 0 11.674-.779 135.646 135.646 0 0 0 24.407-5.527 12 12 0 0 0 7.162-6.7 135.573 135.573 0 0 0 7.143-23.982c3.823-19.643 1.266-34.412-7.6-43.894-11.5-12.3-26.825-17.746-40-14.238-6.245 1.666-16.743 6.7-22.6 21.88-15.538 4.825-21.26 14.963-23.339 21.083-4.384 12.908.036 28.565 11.536 40.86 7.03 7.518 17.634 11.297 31.617 11.297zm-20.426-44.435c1.53-4.5 8.181-6.238 12.01-6.872a12 12 0 0 0 9.723-9.093c.888-3.778 3.064-10.3 7.66-11.525a7.793 7.793 0 0 1 2.009-.248c4.265 0 9.823 2.929 14.276 7.69 5.358 5.728 2.43 23.657-2.2 37.074-13.706 3.726-31.783 5.449-37.139-.277-5.195-5.555-7.801-12.442-6.339-16.749z"/><path d="m177.824 218.852q3.912 0 8.164-.352a135.413 135.413 0 0 0 24.62-4.473 11.994 11.994 0 0 0 7.444-6.384 135.534 135.534 0 0 0 8.168-23.654c4.664-19.461 2.743-34.325-5.71-44.179-10.961-12.777-26.032-18.888-39.351-15.944-6.311 1.4-17.015 5.973-23.513 20.889-15.732 4.153-21.884 14.036-24.224 20.062-4.935 12.708-1.191 28.539 9.77 41.317 7.252 8.454 18.879 12.718 34.632 12.718zm-22.029-45.352c1.722-4.434 8.441-5.882 12.294-6.351a12 12 0 0 0 10.1-8.667c1.05-3.737 3.5-10.159 8.149-11.186a7.56 7.56 0 0 1 1.631-.17c4.315 0 9.946 3.206 14.321 8.306 5.1 5.952 1.41 23.738-3.793 36.945-13.853 3.133-31.987 4.077-37.093-1.873-4.947-5.768-7.256-12.76-5.609-17.004z"/></g></g></svg>