<svg height="511pt" viewBox="-56 0 511 511.998" width="511pt" xmlns="http://www.w3.org/2000/svg"><path d="m160.152344 128.679688v-58.464844c0-2.75-2.140625-4.304688-4.753906-3.453125l-18.117188 5.898437c-2.613281.851563-4.753906 3.796875-4.753906 6.546875v62.800781c7.058594-7.457031 16.769531-12.402343 27.625-13.328124zm0 0" fill="#ffc987"/><path d="m145.742188 132.5v-53.289062c0-2.75 2.140624-5.699219 4.753906-6.550782l9.589844-3.121094c-.328126-2.3125-2.300782-3.550781-4.6875-2.773437l-18.117188 5.894531c-2.617188.851563-4.753906 3.800782-4.753906 6.550782v62.796874c3.734375-3.949218 8.214844-7.191406 13.214844-9.507812zm0 0" fill="#ffaf68"/><path d="m265.34375 142.007812v-62.796874c0-2.75-2.140625-5.699219-4.753906-6.550782l-18.117188-5.894531c-2.613281-.851563-4.753906.699219-4.753906 3.449219v58.464844c10.855469.925781 20.566406 5.871093 27.625 13.328124zm0 0" fill="#ffc987"/><path d="m251.742188 132.328125v-62.113281c0-.148438.03125-.277344.042968-.417969l-9.3125-3.035156c-2.617187-.851563-4.753906.703125-4.753906 3.453125v58.464844c4.960938.425781 9.683594 1.6875 14.023438 3.648437zm0 0" fill="#ffaf68"/><path d="m233.996094 128.511719c-9.011719 0-17.675782 2.769531-25.054688 8.015625-2.992187 2.125-6.5 3.191406-10.007812 3.191406-3.507813 0-7.015625-1.066406-10.007813-3.191406-7.375-5.246094-16.039062-8.015625-25.054687-8.015625-23.730469 0-43.03125 19.164062-43.03125 42.722656 0 11.210937 4.324218 21.792969 12.183594 29.789063 2.433593 2.476562 4.050781 5.628906 4.636718 9.035156l6.394532 37.066406c17.453124-9.359375 35.894531-14.101562 54.878906-14.101562s37.425781 4.742187 54.882812 14.101562l6.390625-37.066406c.585938-3.410156 2.203125-6.5625 4.636719-9.035156 7.859375-7.996094 12.1875-18.578126 12.1875-29.789063 0-23.558594-19.304688-42.722656-43.035156-42.722656zm0 0" fill="#fcf3eb"/><path d="m170.558594 236.675781-5.222656-30.28125c-.589844-3.410156-2.207032-6.558593-4.640626-9.035156-7.855468-8-12.183593-18.578125-12.183593-29.789063 0-16.714843 9.722656-31.207031 23.839843-38.222656-2.773437-.554687-5.605468-.835937-8.480468-.835937-23.726563 0-43.03125 19.164062-43.03125 42.722656 0 11.210937 4.324218 21.792969 12.183594 29.789063 2.433593 2.476562 4.050781 5.628906 4.636718 9.035156l6.394532 37.066406c8.609374-4.617188 17.464843-8.097656 26.503906-10.449219zm0 0" fill="#ffe2b8"/><path d="m140.472656 266.058594c19.078125-7.9375 39.230469-12.074219 59.894532-12.074219 19.710937 0 38.957031 3.761719 57.246093 11l2.136719-10.648437c.414062-2.074219-.542969-4.175782-2.382812-5.238282-18.5-10.667968-38.15625-16.074218-58.433594-16.074218-20.273438 0-39.933594 5.40625-58.429688 16.074218-1.839844 1.0625-2.796875 3.167969-2.382812 5.238282zm0 0" fill="#ffc987"/><path d="m140.472656 266.058594c10.828125-4.503906 22-7.773438 33.414063-9.765625l-3.90625-19.472657c-10.082031 2.683594-19.933594 6.777344-29.476563 12.277344-1.839844 1.0625-2.796875 3.167969-2.382812 5.238282zm0 0" fill="#ffaf68"/><path d="m12.789062 504.5c-2.644531 0-4.789062-2.144531-4.789062-4.789062 0-65.417969 19.871094-126.964844 55.949219-173.308594 36.359375-46.699219 84.808593-72.414063 136.417969-72.414063 51.617187 0 100.0625 25.714844 136.417968 72.414063 36.082032 46.34375 55.953125 107.894531 55.953125 173.308594 0 2.644531-2.144531 4.789062-4.789062 4.789062zm0 0" fill="#fcf3eb"/><path d="m195.367188 254.070312c-49.734376 1.605469-96.234376 27.144532-131.417969 72.332032-36.078125 46.34375-55.949219 107.894531-55.949219 173.308594 0 2.644531 2.144531 4.789062 4.789062 4.789062h31.367188c-2.644531 0-4.789062-2.144531-4.789062-4.789062 0-65.417969 19.871093-126.964844 55.953124-173.308594 23.863282-30.648438 52.941407-52.242188 84.699219-63.472656 4.921875-4.792969 10.058594-7.769532 15.347657-8.691407zm0 0" fill="#ffe2b8"/><path d="m200.820312 253.992188c-.152343 0-.300781-.003907-.453124-.003907-1.230469 0-2.460938.027344-3.6875.058594-38.109376 4.199219-68.699219 114.421875-69.199219 250.453125h142.910156c-.5-136.476562-31.289063-246.984375-69.570313-250.507812zm0 0" fill="#fff"/><path d="m209.445312 256.644531c-2.824218-1.484375-5.703124-2.382812-8.628906-2.652343-.148437 0-.296875-.003907-.449218-.003907-1.230469 0-2.460938.027344-3.6875.058594-38.109376 4.199219-68.699219 114.421875-69.199219 250.453125h20.980469c.460937-126.105469 26.785156-230.015625 60.984374-247.855469zm0 0" fill="#fcf3eb"/><path d="m198.933594 318.867188c-20.144532 0-39.109375 10.847656-55.707032 29.953124-9.667968 42.710938-15.53125 96.773438-15.746093 155.679688h142.910156c-.21875-58.90625-6.078125-112.964844-15.746094-155.679688-16.597656-19.105468-35.5625-29.953124-55.710937-29.953124zm0 0" fill="#ffe2b8"/><path d="m131.820312 420.472656c7.542969-11.210937 15.726563-20.578125 24.402344-27.816406 3.53125-24.597656 8.152344-46.886719 13.648438-66.039062-9.378906 5.101562-18.308594 12.609374-26.644532 22.203124-4.828124 21.328126-8.707031 45.484376-11.40625 71.660157 0-.003907 0-.003907 0-.007813zm0 0" fill="#eac092"/><path d="m198.933594 375.53125c-24.929688 0-48.050782 16.609375-67.113282 44.941406-2.707031 26.25-4.230468 54.53125-4.339843 84.027344h142.910156c-.109375-29.496094-1.632813-57.777344-4.339844-84.027344-19.066406-28.332031-42.1875-44.941406-67.117187-44.941406zm0 0" fill="#fff"/><path d="m149.792969 458.757812c1.289062-23.332031 3.472656-45.527343 6.425781-66.097656-8.675781 7.234375-16.855469 16.601563-24.398438 27.8125-2.171874 21.042969-3.566406 43.410156-4.09375 66.644532 6.816407-11.085938 14.210938-20.621094 22.066407-28.359376zm0 0" fill="#fcf3eb"/><path d="m198.933594 435.800781c-26.75 0-51.414063 19.128907-71.21875 51.335938-.132813 5.738281-.214844 11.523437-.234375 17.363281h142.910156c-.019531-5.839844-.101563-11.625-.234375-17.363281-19.804688-32.207031-44.46875-51.335938-71.222656-51.335938zm0 0" fill="#ffe2b8"/><path d="m127.714844 487.136719c-.132813 5.738281-.214844 11.523437-.234375 17.363281h20.980469c.054687-15.632812.515624-30.914062 1.335937-45.742188-7.863281 7.746094-15.261719 17.285157-22.082031 28.378907zm0 0" fill="#eac092"/><path d="m398.917969 470.324219c-.375-4.125-4.023438-7.160157-8.144531-6.792969-4.125.371094-7.167969 4.019531-6.796876 8.144531.757813 8.351563 1.175782 16.859375 1.25 25.324219h-107.398437c-.75-63.835938-8.097656-123.820312-20.832031-169.621094-6.101563-21.957031-15.191406-46.726562-27.875-63.027344 38.34375 7.679688 73.730468 30.675782 101.746094 66.660157 23.078124 29.636719 39.6875 66.472656 48.039062 106.519531.847656 4.054688 4.816406 6.660156 8.875 5.8125 4.054688-.847656 6.65625-4.820312 5.8125-8.875-8.816406-42.277344-26.414062-81.238281-50.886719-112.671875-21.851562-28.066406-47.964843-48.828125-76.527343-61.367187l.925781-4.621094c.96875-4.839844-1.027344-9.746094-5.007813-12.570313l5.503906-31.902343c.328126-1.914063 1.226563-3.664063 2.597657-5.054688 9.242187-9.410156 14.332031-21.855469 14.332031-35.046875 0-12.1875-4.394531-23.375-11.6875-32.082031v-43.65625c11.367188 6.46875 21.960938 14.457031 31.476562 23.90625 1.464844 1.453125 3.375 2.175781 5.285157 2.175781 1.929687 0 3.855469-.738281 5.324219-2.214844 2.917968-2.9375 2.898437-7.6875-.039063-10.605469-12.53125-12.4375-26.726563-22.609374-42.078125-30.324218-.351562-5.683594-4.484375-11.140625-9.902344-12.902344l-18.113281-5.898438c-1.226563-.398437-2.480469-.601562-3.71875-.601562-4.050781 0-7.4375 2.066406-9.300781 5.273438-8.289063-1.671876-16.757813-2.699219-25.339844-3.085938v-6.410156c11.839844-3.269532 20.558594-14.089844 20.558594-26.898438-.003906-15.390625-12.589844-27.910156-28.0625-27.910156-15.46875 0-28.054688 12.519531-28.054688 27.910156 0 4.144532 3.355469 7.5 7.5 7.5 4.140625 0 7.5-3.355468 7.5-7.5 0-7.117187 5.855469-12.910156 13.054688-12.910156 7.203125 0 13.058594 5.792969 13.058594 12.910156 0 7.121094-5.855469 12.910156-13.058594 12.910156-4.140625 0-7.5 3.359376-7.5 7.5v12.898438c-8.589844.382812-17.0625 1.414062-25.359375 3.085938-.738281-1.253907-1.710938-2.363282-2.910157-3.234376-2.851562-2.074218-6.53125-2.597656-10.085937-1.4375l-18.117187 5.894532c-5.417969 1.761718-9.550782 7.222656-9.898438 12.90625-15.355469 7.710937-29.550781 17.882812-42.082031 30.324218-2.9375 2.917969-2.957031 7.664063-.035157 10.605469 2.917969 2.9375 7.664063 2.957031 10.605469.035157 9.519531-9.449219 20.109375-17.433594 31.476563-23.90625v43.65625c-7.292969 8.710937-11.6875 19.894531-11.6875 32.085937 0 13.1875 5.089844 25.636719 14.335937 35.042969 1.367188 1.394531 2.265625 3.140625 2.59375 5.054687l5.503907 31.90625c-3.980469 2.820313-5.976563 7.726563-5.007813 12.570313l1.160156 5.785156c-27.535156 12.644531-52.714843 32.996094-73.894531 60.199219-37.101562 47.652343-57.53125 110.839843-57.53125 177.917969 0 6.773437 5.511719 12.285156 12.289062 12.285156h375.160157c6.777343 0 12.289062-5.511719 12.289062-12.285156 0-9.808594-.445312-19.695313-1.320312-29.386719zm-140.121094-47.175781c1.28125 12.765624 2.269531 25.925781 2.957031 39.371093-18.859375-22.476562-40.265625-34.21875-62.820312-34.21875-22.550782 0-43.957032 11.742188-62.816406 34.21875.6875-13.445312 1.679687-26.605469 2.960937-39.371093 12.859375-18.660157 33.398437-40.117188 59.855469-40.117188 26.460937 0 47.003906 21.457031 59.863281 40.117188zm-17.808594-97.167969c-1.523437-1.105469-3.058593-2.15625-4.605469-3.132813-3.5-2.214844-8.132812-1.175781-10.347656 2.324219s-1.175781 8.132813 2.324219 10.347656c6.644531 4.207031 13.164063 9.886719 19.40625 16.859375 2.980469 13.410156 5.546875 27.777344 7.675781 42.886719-17.300781-17.898437-36.519531-27.234375-56.507812-27.234375-19.984375 0-39.199219 9.332031-56.503906 27.230469 2.128906-15.105469 4.699218-29.472657 7.679687-42.878907 15.421875-17.246093 31.839844-26.015624 48.824219-26.015624 4.144531 0 7.5-3.359376 7.5-7.5 0-4.140626-3.355469-7.5-7.5-7.5-14.445313 0-28.691406 5.023437-42.0625 14.667968 11.457031-38.71875 26.351562-62.640625 40.328125-64.5.984375-.019531 1.96875-.042968 2.957031-.046875h.230469c6.769531.757813 14.042969 6.960938 21.058593 17.96875 7.191407 11.285157 13.753907 26.925781 19.542969 46.523438zm10.988281-71.039063c-16.617187-5.566406-33.925781-8.457031-51.609374-8.457031-18.632813 0-36.859376 3.191406-54.292969 9.363281l-.230469-1.15625c16.875-9.402344 34.726562-14.167968 53.089844-14.167968 18.367187 0 36.21875 4.765624 53.09375 14.167968zm-6.757812-179.398437 12.625 4.109375v47.316406c-3.925781-2.101562-8.167969-3.6875-12.625-4.695312zm-105.191406 4.109375 12.625-4.109375v7.457031c0 4.140625 3.359375 7.5 7.5 7.5 4.144531 0 7.5-3.359375 7.5-7.5v-3.691406c10.171875-2.152344 20.640625-3.277344 31.285156-3.277344 10.640625 0 21.109375 1.125 31.28125 3.277344v41.84375c-9.210938.679687-18 3.84375-25.621094 9.261718-1.660156 1.179688-3.617187 1.804688-5.664062 1.804688-2.042969 0-4-.625-5.660156-1.804688-7.621094-5.417968-16.410157-8.582031-25.621094-9.261718v-3.152344c0-4.140625-3.359375-7.5-7.5-7.5s-7.5 3.359375-7.5 7.5v4.273438c-4.460938 1.007812-8.699219 2.59375-12.625 4.695312zm-11.6875 91.582031c0-19.421875 15.9375-35.222656 35.53125-35.222656 7.445312 0 14.609375 2.289062 20.710937 6.628906 4.214844 2.992187 9.175781 4.578125 14.351563 4.578125 5.179687 0 10.140625-1.585938 14.355468-4.578125 6.101563-4.335937 13.265626-6.628906 20.710938-6.628906 19.59375 0 35.53125 15.800781 35.53125 35.222656 0 9.234375-3.5625 17.945313-10.035156 24.53125-3.519532 3.582031-5.828125 8.085937-6.679688 13.019531l-4.695312 27.238282c-9.023438-3.980469-18.273438-6.835938-27.703125-8.554688l3.84375-11.140625c1.351562-3.914063-.726563-8.183594-4.640625-9.535156-3.917969-1.351563-8.183594.726562-9.535156 4.640625l-4.921876 14.253906c-2.070312-.105469-4.148437-.160156-6.230468-.160156-2.082032 0-4.15625.054687-6.226563.160156l-4.921875-14.253906c-1.351562-3.914063-5.621094-5.992188-9.535156-4.640625-3.914062 1.351562-5.992188 5.621093-4.640625 9.535156l3.84375 11.140625c-9.429687 1.71875-18.679687 4.574219-27.703125 8.554688l-4.695312-27.238282c-.851563-4.933594-3.164063-9.4375-6.679688-13.019531-6.472656-6.585937-10.035156-15.296875-10.035156-24.53125zm-112.828125 325.765625c.539062-62.742188 19.792969-121.59375 54.355469-165.988281 27.1875-34.921875 61.3125-57.613281 98.347656-65.945313-12.484375 16.402344-21.441406 40.992188-27.46875 62.769532-12.652344 45.734374-19.957032 105.558593-20.707032 169.164062zm119.527343 0c.027344-2.546875.074219-5.085938.125-7.621094 23.921876-38.011718 47.828126-46.078125 63.769532-46.078125 15.945312 0 39.847656 8.066407 63.769531 46.078125.054687 2.53125.097656 5.074219.128906 7.621094zm0 0"/></svg>